#!OML:ASF E:\inclinewalkrobotboard\Project 1\Capture day 1\Session 1\subject1.ASF
:FULLY-SPECIFIED
:DEGREES
408
root 7.97542 23.0145 -13.8152 -169.495 0.872331 180.281
lowerback -10.1294 0.828391 -5.91909
upperback 0.739894 1.75039 1.57851
thorax 6.25425 0.641965 5.28052
lowerneck 3.20435 0.771329 -8.29929
upperneck 5.79994 -0.110536 12.826
head 1.1496 -0.261379 5.24027
rclavicle -1.38901e-014 -1.09332e-014
rhumerus -43.2055 -34.6512 -64.7705
rradius 21.6094
rwrist 19.6377
rhand -17.6514 -35.7573
rfingers 7.12502
rthumb 8.60674 -65.5618
lclavicle -1.38901e-014 -1.09332e-014
lhumerus -32.6067 11.0424 83.5643
lradius 20.5409
lwrist -25.4071
lhand -26.1657 -25.1819
lfingers 7.12502
lthumb 0.385726 4.79752
rfemur -7.92122 5.4906 19.3071
rtibia 9.79323
rfoot -19.2983 2.145
rtoes -13.4765
lfemur -7.3529 -9.92326 -19.9378
ltibia 11.633
lfoot -21.3535 -3.87771
ltoes -20.1692
409
root 7.97219 23.0124 -13.8267 -169.567 0.87782 180.306
lowerback -10.131 0.79927 -5.9081
upperback 0.737375 1.70985 1.58671
thorax 6.25793 0.622235 5.27713
lowerneck 3.55586 0.768035 -8.06246
upperneck 5.5454 -0.0968665 12.6354
head 1.01786 -0.265746 5.13942
rclavicle -7.57867e-015 5.56597e-015
rhumerus -43.1387 -34.452 -64.9239
rradius 21.5183
rwrist 19.3675
rhand -17.7868 -35.9674
rfingers 7.12502
rthumb 8.47607 -65.7773
lclavicle -7.57867e-015 5.56597e-015
lhumerus -32.8171 10.7203 83.6973
lradius 20.7965
lwrist -25.0428
lhand -26.1709 -25.59
lfingers 7.12502
lthumb 0.380645 4.38937
rfemur -7.77518 5.40481 19.3455
rtibia 9.80719
rfoot -19.3137 2.19564
rtoes -13.3899
lfemur -7.22785 -9.98281 -19.9738
ltibia 11.6867
lfoot -21.4446 -3.89735
ltoes -20.2356
410
root 7.96209 23.0033 -13.8674 -169.659 0.570563 180.122
lowerback -10.5503 0.637196 -5.99638
upperback 0.847788 1.53443 1.54058
thorax 6.63699 0.515548 5.26911
lowerneck 3.79283 0.781242 -7.8116
upperneck 5.24257 -0.0344038 12.3667
head 0.886894 -0.238323 5.01189
rclavicle -1.58531e-014 -5.96354e-016
rhumerus -43.2328 -34.5907 -64.804
rradius 21.3606
rwrist 19.4902
rhand -17.8413 -36.1815
rfingers 7.12502
rthumb 8.42352 -65.9935
lclavicle -1.58531e-014 -5.96354e-016
lhumerus -33.1407 10.2587 83.8734
lradius 21.1954
lwrist -24.4886
lhand -25.9651 -25.218
lfingers 7.12502
lthumb 0.579482 4.76096
rfemur -7.25642 4.57441 19.1615
rtibia 9.53461
rfoot -19.4282 2.67175
rtoes -13.2805
lfemur -6.77444 -10.1297 -20.4478
ltibia 11.4705
lfoot -21.3585 -4.43946
ltoes -18.589
411
root 7.96972 23.0101 -13.8398 -169.648 0.794099 180.393
lowerback -10.1367 0.723122 -5.91565
upperback 0.711069 1.60795 1.61839
thorax 6.24577 0.572861 5.30004
lowerneck 2.13024 1.02377 -8.89609
upperneck 6.11977 0.230928 13.5833
head 1.37489 -0.0534994 5.58226
rclavicle -4.74598e-015 5.96354e-016
rhumerus -43.5324 -34.9161 -64.5314
rradius 21.2963
rwrist 19.855
rhand -17.649 -36.1764
rfingers 7.12502
rthumb 8.60904 -65.9809
lclavicle -4.74598e-015 5.96354e-016
lhumerus -33.1684 10.1992 83.916
lradius 21.1682
lwrist -24.5282
lhand -25.7216 -24.4787
lfingers 7.12502
lthumb 0.814587 5.49947
rfemur -7.76519 5.37688 19.4899
rtibia 10.0983
rfoot -19.6346 2.04229
rtoes -14.046
lfemur -7.15822 -10.1149 -19.9285
ltibia 11.8441
lfoot -21.5003 -4.28794
ltoes -17.8398
412
root 7.95442 23.0014 -13.8863 -169.705 0.666019 180.328
lowerback -10.6562 0.598273 -5.85736
upperback 0.786315 1.47127 1.55544
thorax 6.64241 0.491714 5.19824
lowerneck 2.53222 1.01876 -8.76514
upperneck 5.8436 0.21802 13.6026
head 1.22942 -0.077826 5.56289
rclavicle -5.29264e-015 8.44835e-015
rhumerus -43.7176 -34.7521 -64.6309
rradius 21.4293
rwrist 19.6812
rhand -17.5038 -36.1679
rfingers 7.12502
rthumb 8.74916 -65.9666
lclavicle -5.29264e-015 8.44835e-015
lhumerus -32.9564 10.7001 83.7716
lradius 20.71
lwrist -25.1896
lhand -25.7026 -24.2653
lfingers 7.12502
lthumb 0.832985 5.71281
rfemur -7.2326 4.29667 19.3614
rtibia 9.70297
rfoot -19.6311 3.07233
rtoes -13.9342
lfemur -6.60254 -10.2281 -20.3195
ltibia 11.4583
lfoot -21.5548 -4.29703
ltoes -18.57
413
root 7.9583 22.9999 -13.869 -169.52 0.711109 180.427
lowerback -10.5004 0.500218 -5.9436
upperback 0.628131 1.33854 1.62122
thorax 6.39957 0.437442 5.28914
lowerneck 2.9963 0.996318 -8.7883
upperneck 5.59275 0.177728 13.5978
head 1.084 -0.119913 5.56309
rclavicle 1.52691e-014 3.8763e-015
rhumerus -43.6854 -34.3791 -64.8715
rradius 21.5255
rwrist 19.3585
rhand -17.5351 -36.1924
rfingers 7.12502
rthumb 8.719 -65.9923
lclavicle 1.52691e-014 3.8763e-015
lhumerus -32.9842 11.3929 83.6011
lradius 20.5429
lwrist -25.7328
lhand -25.5603 -24.3784
lfingers 7.12502
lthumb 0.970374 5.59917
rfemur -7.6925 4.71465 19.4851
rtibia 10.0007
rfoot -19.6149 2.75816
rtoes -13.3921
lfemur -7.03838 -10.0556 -20.0243
ltibia 11.6875
lfoot -21.6114 -4.20933
ltoes -20.1571
414
root 7.94891 23.0042 -13.8836 -169.877 0.875084 180.369
lowerback -10.3189 0.472095 -5.99054
upperback 0.768255 1.29291 1.63129
thorax 6.45115 0.405387 5.31701
lowerneck 3.17381 1.0161 -8.94537
upperneck 5.43506 0.206507 13.656
head 1.00457 -0.115106 5.60703
rclavicle 2.27608e-014 1.41137e-014
rhumerus -43.6855 -34.4299 -64.7566
rradius 21.4248
rwrist 19.5452
rhand -17.7167 -35.9901
rfingers 7.12502
rthumb 8.54374 -65.7973
lclavicle 2.27608e-014 1.41137e-014
lhumerus -33.1051 11.7931 83.5529
lradius 20.6038
lwrist -25.9194
lhand -25.4848 -24.7009
lfingers 7.12502
lthumb 1.04334 5.27634
rfemur -7.34488 4.96662 19.3999
rtibia 10.1727
rfoot -19.7359 2.65429
rtoes -13.1744
lfemur -6.41921 -10.1596 -20.2549
ltibia 11.4477
lfoot -21.7841 -3.95927
ltoes -20.7377
415
root 7.93973 23.0067 -13.8929 -170.117 0.921201 180.246
lowerback -10.2637 0.43199 -6.08776
upperback 0.888548 1.2477 1.62024
thorax 6.55297 0.371258 5.35455
lowerneck 3.33718 1.04179 -9.00971
upperneck 5.17776 0.26645 13.6325
head 0.896284 -0.091309 5.60875
rclavicle -5.09386e-016 -3.18055e-015
rhumerus -43.8112 -34.748 -64.3888
rradius 21.2154
rwrist 19.9861
rhand -17.8939 -35.3434
rfingers 7.12502
rthumb 8.37273 -65.1575
lclavicle -5.09386e-016 -3.18055e-015
lhumerus -33.1296 11.9335 83.596
lradius 20.5144
lwrist -26.0431
lhand -25.8339 -25.089
lfingers 7.12502
lthumb 0.706212 4.88953
rfemur -7.14014 5.07794 19.2429
rtibia 10.375
rfoot -19.933 2.51945
rtoes -13.4592
lfemur -6.0875 -10.2636 -20.5132
ltibia 11.4141
lfoot -21.9123 -3.90562
ltoes -20.6575
416
root 7.93601 23.0056 -13.891 -170.118 1.03083 180.195
lowerback -10.3063 0.41799 -6.21297
upperback 0.898301 1.24775 1.6139
thorax 6.58586 0.36519 5.42068
lowerneck 3.42267 1.05357 -9.03007
upperneck 5.11773 0.2735 13.7264
head 0.862783 -0.0934971 5.64122
rclavicle 2.41026e-015 2.0276e-014
rhumerus -43.9663 -35.1226 -64.0463
rradius 21.0457
rwrist 20.3917
rhand -17.6936 -34.9248
rfingers 7.12502
rthumb 8.56606 -64.7311
lclavicle 2.41026e-015 2.0276e-014
lhumerus -33.172 11.9692 83.6189
lradius 20.411
lwrist -26.1606
lhand -26.1581 -24.9496
lfingers 7.12502
lthumb 0.393092 5.02981
rfemur -7.35124 5.29738 19.1694
rtibia 10.7402
rfoot -20.1158 2.34781
rtoes -13.6995
lfemur -6.1681 -10.1393 -20.5464
ltibia 11.5325
lfoot -21.9044 -4.14414
ltoes -19.4952
417
root 7.93713 22.9988 -13.8806 -169.87 1.2199 180.28
lowerback -10.4369 0.41351 -6.28169
upperback 0.788155 1.25998 1.60988
thorax 6.53972 0.375022 5.4592
lowerneck 3.2195 1.09891 -9.00189
upperneck 5.15624 0.329723 13.9274
head 0.89901 -0.0594931 5.69949
rclavicle -6.70898e-015 -3.8763e-015
rhumerus -44.2108 -35.6353 -63.6572
rradius 20.9304
rwrist 20.9389
rhand -17.218 -35.3053
rfingers 7.12502
rthumb 9.02503 -65.0922
lclavicle -6.70898e-015 -3.8763e-015
lhumerus -33.2119 11.9248 83.5498
lradius 20.325
lwrist -26.1908
lhand -26.2205 -24.3085
lfingers 7.12502
lthumb 0.332794 5.67103
rfemur -7.98993 5.78542 19.2609
rtibia 11.2916
rfoot -20.3048 2.04944
rtoes -13.7858
lfemur -6.59739 -9.86166 -20.3028
ltibia 11.7052
lfoot -21.8481 -4.49366
ltoes -17.9224
